<?xml version="1.0" encoding="UTF-8" standalone="no"?>
<!DOCTYPE svg PUBLIC "-//W3C//DTD SVG 1.0//EN" "http://www.w3.org/TR/2001/PR-SVG-20010719/DTD/svg10.dtd">
<svg width="42cm" height="26cm" viewBox="69 19 829 507" xmlns="http://www.w3.org/2000/svg" xmlns:xlink="http://www.w3.org/1999/xlink">
  <g>
    <rect style="fill: #ffffff" x="70" y="41" width="827" height="485"/>
    <rect style="fill: none; fill-opacity:0; stroke-width: 2; stroke: #000000" x="70" y="41" width="827" height="485"/>
    <rect style="fill: #ffffff" x="70" y="21" width="258.1" height="20"/>
    <rect style="fill: none; fill-opacity:0; stroke-width: 2; stroke: #000000" x="70" y="21" width="258.1" height="20"/>
    <text font-size="12.7998" style="fill: #000000;text-anchor:start;font-family:monospace;font-style:normal;font-weight:normal" x="72" y="35">es.juntadeandalucia.fass.geocoder</text>
  </g>
  <g>
    <rect style="fill: #ffffff" x="240" y="132" width="95.7" height="28"/>
    <rect style="fill: none; fill-opacity:0; stroke-width: 2; stroke: #000000" x="240" y="132" width="95.7" height="28"/>
    <text font-size="16" style="fill: #000000;text-anchor:middle;font-family:sans-serif;font-style:normal;font-weight:700" x="287.85" y="151">Geocoder</text>
    <rect style="fill: #ffffff" x="240" y="160" width="95.7" height="8"/>
    <rect style="fill: none; fill-opacity:0; stroke-width: 2; stroke: #000000" x="240" y="160" width="95.7" height="8"/>
    <rect style="fill: #ffffff" x="240" y="168" width="95.7" height="20"/>
    <rect style="fill: none; fill-opacity:0; stroke-width: 2; stroke: #000000" x="240" y="168" width="95.7" height="20"/>
    <text font-size="12.8" style="fill: #000000;text-anchor:start;font-family:monospace;font-style:normal;font-weight:normal" x="243" y="182">+geocode()</text>
  </g>
  <g>
    <rect style="fill: #ffffff" x="161" y="244" width="149.9" height="28"/>
    <rect style="fill: none; fill-opacity:0; stroke-width: 2; stroke: #000000" x="161" y="244" width="149.9" height="28"/>
    <text font-size="16" style="fill: #000000;text-anchor:middle;font-family:sans-serif;font-style:italic;font-weight:700" x="235.95" y="263">GeocoderQuery</text>
    <rect style="fill: #ffffff" x="161" y="272" width="149.9" height="8"/>
    <rect style="fill: none; fill-opacity:0; stroke-width: 2; stroke: #000000" x="161" y="272" width="149.9" height="8"/>
    <rect style="fill: #ffffff" x="161" y="280" width="149.9" height="36"/>
    <rect style="fill: none; fill-opacity:0; stroke-width: 2; stroke: #000000" x="161" y="280" width="149.9" height="36"/>
    <text font-size="12.8" style="fill: #000000;text-anchor:start;font-family:monospace;font-style:normal;font-weight:normal" x="164" y="294">+newQuery()</text>
    <line style="fill: none; fill-opacity:0; stroke-width: 1; stroke: #000000" x1="164" y1="295.6" x2="248.7" y2="295.6"/>
    <text font-size="12.8" style="fill: #000000;text-anchor:start;font-family:monospace;font-style:italic;font-weight:700" x="164" y="310">+runQuery()</text>
  </g>
  <g>
    <rect style="fill: #ffffff" x="126" y="375" width="220.4" height="28"/>
    <rect style="fill: none; fill-opacity:0; stroke-width: 2; stroke: #000000" x="126" y="375" width="220.4" height="28"/>
    <text font-size="16" style="fill: #000000;text-anchor:middle;font-family:sans-serif;font-style:normal;font-weight:700" x="236.2" y="394">PostGISGeocoderQuery</text>
    <rect style="fill: #ffffff" x="126" y="403" width="220.4" height="8"/>
    <rect style="fill: none; fill-opacity:0; stroke-width: 2; stroke: #000000" x="126" y="403" width="220.4" height="8"/>
    <rect style="fill: #ffffff" x="126" y="411" width="220.4" height="68"/>
    <rect style="fill: none; fill-opacity:0; stroke-width: 2; stroke: #000000" x="126" y="411" width="220.4" height="68"/>
    <text font-size="12.8" style="fill: #000000;text-anchor:start;font-family:monospace;font-style:normal;font-weight:normal" x="129" y="425">+runQuery()</text>
    <text font-size="12.8" style="fill: #000000;text-anchor:start;font-family:monospace;font-style:normal;font-weight:normal" x="129" y="441">-prepareQuery()</text>
    <text font-size="12.8" style="fill: #000000;text-anchor:start;font-family:monospace;font-style:normal;font-weight:normal" x="129" y="457">-executeQuery()</text>
    <text font-size="12.8" style="fill: #000000;text-anchor:start;font-family:monospace;font-style:normal;font-weight:normal" x="129" y="473">-processResults()</text>
  </g>
  <g>
    <polyline style="fill: none; fill-opacity:0; stroke-width: 2; stroke: #000000" points="236.2,356.764 236.2,338.005 235.95,338.005 235.95,317.009 "/>
    <polygon style="fill: #ffffff" points="228.2,356.764 236.2,372.764 244.2,356.764 "/>
    <polygon style="fill: none; fill-opacity:0; stroke-width: 2; stroke: #000000" points="228.2,356.764 236.2,372.764 244.2,356.764 "/>
  </g>
  <g>
    <polyline style="fill: none; fill-opacity:0; stroke-width: 2; stroke: #000000" points="287.85,214.179 287.85,222.999 235.95,222.999 235.95,242.991 "/>
    <polygon style="fill: #ffffff" points="287.85,189.007 292.65,203.007 287.85,217.007 283.05,203.007 "/>
    <polygon style="fill: none; fill-opacity:0; stroke-width: 2; stroke: #000000" points="287.85,189.007 292.65,203.007 287.85,217.007 283.05,203.007 "/>
    <text font-size="12.7998" style="fill: #000000;text-anchor:middle;font-family:monospace;font-style:normal;font-weight:normal" x="261.9" y="218.999"/>
    <text font-size="12.7998" style="fill: #000000;text-anchor:start;font-family:monospace;font-style:normal;font-weight:normal" x="298.85" y="201.007"/>
    <text font-size="12.7998" style="fill: #000000;text-anchor:start;font-family:monospace;font-style:normal;font-weight:normal" x="239.95" y="238.991"/>
  </g>
  <g>
    <rect style="fill: #ffffff" x="385" y="67" width="221" height="28"/>
    <rect style="fill: none; fill-opacity:0; stroke-width: 2; stroke: #000000" x="385" y="67" width="221" height="28"/>
    <text font-size="16" style="fill: #000000;text-anchor:middle;font-family:sans-serif;font-style:normal;font-weight:700" x="495.5" y="86">GeocoderXMLResponse</text>
    <rect style="fill: #ffffff" x="385" y="95" width="221" height="8"/>
    <rect style="fill: none; fill-opacity:0; stroke-width: 2; stroke: #000000" x="385" y="95" width="221" height="8"/>
    <rect style="fill: #ffffff" x="385" y="103" width="221" height="36"/>
    <rect style="fill: none; fill-opacity:0; stroke-width: 2; stroke: #000000" x="385" y="103" width="221" height="36"/>
    <text font-size="12.8" style="fill: #000000;text-anchor:start;font-family:monospace;font-style:normal;font-weight:normal" x="388" y="117">+generate()</text>
    <text font-size="12.8" style="fill: #000000;text-anchor:start;font-family:monospace;font-style:normal;font-weight:normal" x="388" y="133">-encode()</text>
  </g>
  <g>
    <polyline style="fill: none; fill-opacity:0; stroke-width: 2; stroke: #000000" points="361.878,160 367.35,160 367.35,103 383.993,103 "/>
    <polygon style="fill: #ffffff" points="336.706,160 350.706,155.2 364.706,160 350.706,164.8 "/>
    <polygon style="fill: none; fill-opacity:0; stroke-width: 2; stroke: #000000" points="336.706,160 350.706,155.2 364.706,160 350.706,164.8 "/>
    <text font-size="12.7998" style="fill: #000000;text-anchor:start;font-family:monospace;font-style:normal;font-weight:normal" x="369.35" y="127.5"/>
    <text font-size="12.7998" style="fill: #000000;text-anchor:start;font-family:monospace;font-style:normal;font-weight:normal" x="368.706" y="156"/>
    <text font-size="12.7998" style="fill: #000000;text-anchor:end;font-family:monospace;font-style:normal;font-weight:normal" x="379.993" y="99"/>
  </g>
  <g>
    <rect style="fill: #ffffff" x="86" y="79" width="153.15" height="28"/>
    <rect style="fill: none; fill-opacity:0; stroke-width: 2; stroke: #000000" x="86" y="79" width="153.15" height="28"/>
    <text font-size="16" style="fill: #000000;text-anchor:middle;font-family:sans-serif;font-style:normal;font-weight:700" x="162.575" y="98">GeocoderConfig</text>
    <rect style="fill: #ffffff" x="86" y="107" width="153.15" height="8"/>
    <rect style="fill: none; fill-opacity:0; stroke-width: 2; stroke: #000000" x="86" y="107" width="153.15" height="8"/>
    <rect style="fill: #ffffff" x="86" y="115" width="153.15" height="8"/>
    <rect style="fill: none; fill-opacity:0; stroke-width: 2; stroke: #000000" x="86" y="115" width="153.15" height="8"/>
  </g>
  <g>
    <polyline style="fill: none; fill-opacity:0; stroke-width: 2; stroke: #000000" points="213.822,160 162.575,160 162.575,124.006 "/>
    <polygon style="fill: #ffffff" points="238.994,160 224.994,164.8 210.994,160 224.994,155.2 "/>
    <polygon style="fill: none; fill-opacity:0; stroke-width: 2; stroke: #000000" points="238.994,160 224.994,164.8 210.994,160 224.994,155.2 "/>
    <text font-size="12.7998" style="fill: #000000;text-anchor:middle;font-family:monospace;font-style:normal;font-weight:normal" x="200.785" y="156"/>
    <text font-size="12.7998" style="fill: #000000;text-anchor:end;font-family:monospace;font-style:normal;font-weight:normal" x="206.994" y="156"/>
    <text font-size="12.7998" style="fill: #000000;text-anchor:start;font-family:monospace;font-style:normal;font-weight:normal" x="166.575" y="136.006"/>
  </g>
  <g>
    <rect style="fill: #ffffff" x="396" y="394" width="371.9" height="28"/>
    <rect style="fill: none; fill-opacity:0; stroke-width: 2; stroke: #000000" x="396" y="394" width="371.9" height="28"/>
    <text font-size="16" style="fill: #000000;text-anchor:middle;font-family:sans-serif;font-style:normal;font-weight:700" x="581.95" y="413">GeocoderXMLProducer</text>
    <rect style="fill: #ffffff" x="396" y="422" width="371.9" height="8"/>
    <rect style="fill: none; fill-opacity:0; stroke-width: 2; stroke: #000000" x="396" y="422" width="371.9" height="8"/>
    <rect style="fill: #ffffff" x="396" y="430" width="371.9" height="52"/>
    <rect style="fill: none; fill-opacity:0; stroke-width: 2; stroke: #000000" x="396" y="430" width="371.9" height="52"/>
    <text font-size="12.8" style="fill: #000000;text-anchor:start;font-family:monospace;font-style:normal;font-weight:normal" x="399" y="444">+produce()</text>
    <text font-size="12.8" style="fill: #000000;text-anchor:start;font-family:monospace;font-style:normal;font-weight:normal" x="399" y="460">-sendOutput()</text>
    <text font-size="12.8" style="fill: #000000;text-anchor:start;font-family:monospace;font-style:normal;font-weight:normal" x="399" y="476">-processResultItem(in items:GeocoderResultItem)</text>
  </g>
  <g>
    <rect style="fill: #ffffff" x="670" y="57" width="194" height="28"/>
    <rect style="fill: none; fill-opacity:0; stroke-width: 2; stroke: #000000" x="670" y="57" width="194" height="28"/>
    <text font-size="16" style="fill: #000000;text-anchor:middle;font-family:sans-serif;font-style:normal;font-weight:700" x="767" y="76">GeocoderResultItem</text>
    <rect style="fill: #ffffff" x="670" y="85" width="194" height="8"/>
    <rect style="fill: none; fill-opacity:0; stroke-width: 2; stroke: #000000" x="670" y="85" width="194" height="8"/>
    <rect style="fill: #ffffff" x="670" y="93" width="194" height="276"/>
    <rect style="fill: none; fill-opacity:0; stroke-width: 2; stroke: #000000" x="670" y="93" width="194" height="276"/>
    <text font-size="12.8" style="fill: #000000;text-anchor:start;font-family:monospace;font-style:normal;font-weight:normal" x="673" y="107">+addSegment()</text>
    <text font-size="12.8" style="fill: #000000;text-anchor:start;font-family:monospace;font-style:normal;font-weight:normal" x="673" y="123">+getSegments()</text>
    <text font-size="12.8" style="fill: #000000;text-anchor:start;font-family:monospace;font-style:normal;font-weight:normal" x="673" y="139">+iterator()</text>
    <text font-size="12.8" style="fill: #000000;text-anchor:start;font-family:monospace;font-style:normal;font-weight:normal" x="673" y="155">+hasNext()</text>
    <text font-size="12.8" style="fill: #000000;text-anchor:start;font-family:monospace;font-style:normal;font-weight:normal" x="673" y="171">+next()</text>
    <text font-size="12.8" style="fill: #000000;text-anchor:start;font-family:monospace;font-style:normal;font-weight:normal" x="673" y="187">+remove()</text>
    <text font-size="12.8" style="fill: #000000;text-anchor:start;font-family:monospace;font-style:normal;font-weight:normal" x="673" y="203">+isSegmentFound()</text>
    <text font-size="12.8" style="fill: #000000;text-anchor:start;font-family:monospace;font-style:normal;font-weight:normal" x="673" y="219">+getLocality()</text>
    <text font-size="12.8" style="fill: #000000;text-anchor:start;font-family:monospace;font-style:normal;font-weight:normal" x="673" y="235">+setLocality()</text>
    <text font-size="12.8" style="fill: #000000;text-anchor:start;font-family:monospace;font-style:normal;font-weight:normal" x="673" y="251">+getStreetName()</text>
    <text font-size="12.8" style="fill: #000000;text-anchor:start;font-family:monospace;font-style:normal;font-weight:normal" x="673" y="267">+setStreetName()</text>
    <text font-size="12.8" style="fill: #000000;text-anchor:start;font-family:monospace;font-style:normal;font-weight:normal" x="673" y="283">+getStreetType()</text>
    <text font-size="12.8" style="fill: #000000;text-anchor:start;font-family:monospace;font-style:normal;font-weight:normal" x="673" y="299">+setStreetType()</text>
    <text font-size="12.8" style="fill: #000000;text-anchor:start;font-family:monospace;font-style:normal;font-weight:normal" x="673" y="315">+getStreetNumber()</text>
    <text font-size="12.8" style="fill: #000000;text-anchor:start;font-family:monospace;font-style:normal;font-weight:normal" x="673" y="331">+setStreetNumber()</text>
    <text font-size="12.8" style="fill: #000000;text-anchor:start;font-family:monospace;font-style:normal;font-weight:normal" x="673" y="347">+isNameMatchExact()</text>
    <text font-size="12.8" style="fill: #000000;text-anchor:start;font-family:monospace;font-style:normal;font-weight:normal" x="673" y="363">+setNameMatchExact()</text>
  </g>
  <g>
    <polyline style="fill: none; fill-opacity:0; stroke-width: 2; stroke: #000000" points="495.5,165.181 495.5,273.502 581.95,273.502 581.95,392.995 "/>
    <polygon style="fill: #ffffff" points="495.5,140.009 500.3,154.009 495.5,168.009 490.7,154.009 "/>
    <polygon style="fill: none; fill-opacity:0; stroke-width: 2; stroke: #000000" points="495.5,140.009 500.3,154.009 495.5,168.009 490.7,154.009 "/>
    <text font-size="12.7998" style="fill: #000000;text-anchor:middle;font-family:monospace;font-style:normal;font-weight:normal" x="538.725" y="269.502"/>
    <text font-size="12.7998" style="fill: #000000;text-anchor:start;font-family:monospace;font-style:normal;font-weight:normal" x="506.5" y="152.009"/>
    <text font-size="12.7998" style="fill: #000000;text-anchor:start;font-family:monospace;font-style:normal;font-weight:normal" x="585.95" y="388.995"/>
  </g>
</svg>
