<?xml version="1.0" encoding="UTF-8" standalone="no"?>
<!DOCTYPE svg PUBLIC "-//W3C//DTD SVG 1.0//EN" "http://www.w3.org/TR/2001/PR-SVG-20010719/DTD/svg10.dtd">
<svg width="44cm" height="28cm" viewBox="79 99 868 546" xmlns="http://www.w3.org/2000/svg" xmlns:xlink="http://www.w3.org/1999/xlink">
  <g>
    <rect style="fill: #ffffff" x="100" y="100" width="127.2" height="36"/>
    <rect style="fill: none; fill-opacity:0; stroke-width: 2; stroke: #000000" x="100" y="100" width="127.2" height="36"/>
    <text font-size="12.7998" style="fill: #000000;text-anchor:middle;font-family:sans-serif;font-style:normal;font-weight:normal" x="163.6" y="121.9">
      <tspan x="163.6" y="121.9">GeocoderServlet</tspan>
    </text>
    <line style="fill: none; fill-opacity:0; stroke-width: 1; stroke: #000000" x1="110" y1="124.95" x2="217.2" y2="124.95"/>
  </g>
  <g>
    <line style="fill: none; fill-opacity:0; stroke-width: 1; stroke-dasharray: 8; stroke: #000000" x1="163.6" y1="136" x2="163.6" y2="160"/>
    <line style="fill: none; fill-opacity:0; stroke-width: 1; stroke-dasharray: 8; stroke: #000000" x1="163.6" y1="620" x2="163.6" y2="640"/>
    <rect style="fill: #ffffff" x="156.6" y="160" width="14" height="460"/>
    <rect style="fill: none; fill-opacity:0; stroke-width: 2; stroke: #000000" x="156.6" y="160" width="14" height="460"/>
  </g>
  <g>
    <line style="fill: none; fill-opacity:0; stroke-width: 2; stroke: #000000" x1="139.6" y1="160" x2="80" y2="160"/>
    <polygon style="fill: #000000" points="139.6,165 155.6,160 139.6,155 "/>
    <polygon style="fill: none; fill-opacity:0; stroke-width: 2; stroke: #000000" points="139.6,165 155.6,160 139.6,155 "/>
    <text font-size="12.7998" style="fill: #000000;text-anchor:middle;font-family:sans-serif;font-style:normal;font-weight:normal" x="111" y="156">doGet</text>
  </g>
  <g>
    <rect style="fill: #ffffff" x="300" y="100" width="81.85" height="36"/>
    <rect style="fill: none; fill-opacity:0; stroke-width: 2; stroke: #000000" x="300" y="100" width="81.85" height="36"/>
    <text font-size="12.7998" style="fill: #000000;text-anchor:middle;font-family:sans-serif;font-style:normal;font-weight:normal" x="340.925" y="121.9">
      <tspan x="340.925" y="121.9">Geocoder</tspan>
    </text>
    <line style="fill: none; fill-opacity:0; stroke-width: 1; stroke: #000000" x1="310" y1="124.95" x2="371.85" y2="124.95"/>
  </g>
  <g>
    <line style="fill: none; fill-opacity:0; stroke-width: 1; stroke-dasharray: 8; stroke: #000000" x1="340.925" y1="136" x2="340.925" y2="300"/>
    <line style="fill: none; fill-opacity:0; stroke-width: 1; stroke-dasharray: 8; stroke: #000000" x1="340.925" y1="600" x2="340.925" y2="644"/>
    <rect style="fill: #ffffff" x="333.925" y="300" width="14" height="300"/>
    <rect style="fill: none; fill-opacity:0; stroke-width: 2; stroke: #000000" x="333.925" y="300" width="14" height="300"/>
  </g>
  <g>
    <line style="fill: none; fill-opacity:0; stroke-width: 2; stroke: #000000" x1="170.6" y1="180" x2="320" y2="180"/>
    <line style="fill: none; fill-opacity:0; stroke-width: 2; stroke: #000000" x1="320" y1="180" x2="320" y2="200"/>
    <line style="fill: none; fill-opacity:0; stroke-width: 2; stroke: #000000" x1="187.6" y1="200" x2="320" y2="200"/>
    <polygon style="fill: #000000" points="187.6,195 171.6,200 187.6,205 "/>
    <polygon style="fill: none; fill-opacity:0; stroke-width: 2; stroke: #000000" points="187.6,195 171.6,200 187.6,205 "/>
    <text font-size="12.7998" style="fill: #000000;text-anchor:middle;font-family:sans-serif;font-style:normal;font-weight:normal" x="254" y="173">processRequest</text>
  </g>
  <g>
    <line style="fill: none; fill-opacity:0; stroke-width: 2; stroke: #000000" x1="170.6" y1="240" x2="320" y2="240"/>
    <line style="fill: none; fill-opacity:0; stroke-width: 2; stroke: #000000" x1="320" y1="240" x2="320" y2="260"/>
    <line style="fill: none; fill-opacity:0; stroke-width: 2; stroke: #000000" x1="187.6" y1="260" x2="320" y2="260"/>
    <polygon style="fill: #000000" points="187.6,255 171.6,260 187.6,265 "/>
    <polygon style="fill: none; fill-opacity:0; stroke-width: 2; stroke: #000000" points="187.6,255 171.6,260 187.6,265 "/>
    <text font-size="12.7998" style="fill: #000000;text-anchor:middle;font-family:sans-serif;font-style:normal;font-weight:normal" x="252" y="234">processParameters</text>
  </g>
  <g>
    <line style="fill: none; fill-opacity:0; stroke-width: 2; stroke: #000000" x1="316.925" y1="300" x2="170.6" y2="300"/>
    <polygon style="fill: #000000" points="316.925,305 332.925,300 316.925,295 "/>
    <polygon style="fill: none; fill-opacity:0; stroke-width: 2; stroke: #000000" points="316.925,305 332.925,300 316.925,295 "/>
    <text font-size="12.7998" style="fill: #000000;text-anchor:middle;font-family:sans-serif;font-style:normal;font-weight:normal" x="261" y="293">geocode</text>
  </g>
  <g>
    <rect style="fill: #ffffff" x="420" y="100" width="120.8" height="36"/>
    <rect style="fill: none; fill-opacity:0; stroke-width: 2; stroke: #000000" x="420" y="100" width="120.8" height="36"/>
    <text font-size="12.7998" style="fill: #000000;text-anchor:middle;font-family:sans-serif;font-style:normal;font-weight:normal" x="480.4" y="121.9">
      <tspan x="480.4" y="121.9">GeocoderQuery</tspan>
    </text>
    <line style="fill: none; fill-opacity:0; stroke-width: 1; stroke: #000000" x1="430" y1="124.95" x2="530.8" y2="124.95"/>
  </g>
  <g>
    <line style="fill: none; fill-opacity:0; stroke-width: 1; stroke-dasharray: 8; stroke: #000000" x1="480.4" y1="136" x2="480.4" y2="320"/>
    <line style="fill: none; fill-opacity:0; stroke-width: 1; stroke-dasharray: 8; stroke: #000000" x1="480.4" y1="360" x2="480.4" y2="640"/>
    <rect style="fill: #ffffff" x="473.4" y="320" width="14" height="40"/>
    <rect style="fill: none; fill-opacity:0; stroke-width: 2; stroke: #000000" x="473.4" y="320" width="14" height="40"/>
  </g>
  <g>
    <line style="fill: none; fill-opacity:0; stroke-width: 2; stroke: #000000" x1="456.4" y1="320" x2="347.925" y2="320"/>
    <polygon style="fill: #000000" points="456.4,325 472.4,320 456.4,315 "/>
    <polygon style="fill: none; fill-opacity:0; stroke-width: 2; stroke: #000000" points="456.4,325 472.4,320 456.4,315 "/>
    <text font-size="12.7998" style="fill: #000000;text-anchor:middle;font-family:sans-serif;font-style:normal;font-weight:normal" x="412" y="315">newQuery</text>
  </g>
  <g>
    <line style="fill: none; fill-opacity:0; stroke-width: 2; stroke-dasharray: 8; stroke: #000000" x1="364.925" y1="360" x2="473.4" y2="360"/>
    <polygon style="fill: #000000" points="364.925,355 348.925,360 364.925,365 "/>
    <polygon style="fill: none; fill-opacity:0; stroke-width: 2; stroke: #000000" points="364.925,355 348.925,360 364.925,365 "/>
  </g>
  <g>
    <line style="fill: none; fill-opacity:0; stroke-width: 2; stroke: #000000" x1="456.4" y1="400" x2="347.925" y2="400"/>
    <polygon style="fill: #000000" points="456.4,405 472.4,400 456.4,395 "/>
    <polygon style="fill: none; fill-opacity:0; stroke-width: 2; stroke: #000000" points="456.4,405 472.4,400 456.4,395 "/>
    <text font-size="12.7998" style="fill: #000000;text-anchor:middle;font-family:sans-serif;font-style:normal;font-weight:normal" x="414" y="395">runQuery</text>
  </g>
  <g>
    <line style="fill: none; fill-opacity:0; stroke-width: 1; stroke-dasharray: 8; stroke: #000000" x1="480.4" y1="136" x2="480.4" y2="400"/>
    <line style="fill: none; fill-opacity:0; stroke-width: 1; stroke-dasharray: 8; stroke: #000000" x1="480.4" y1="440" x2="480.4" y2="450"/>
    <rect style="fill: #ffffff" x="473.4" y="400" width="14" height="40"/>
    <rect style="fill: none; fill-opacity:0; stroke-width: 2; stroke: #000000" x="473.4" y="400" width="14" height="40"/>
  </g>
  <g>
    <line style="fill: none; fill-opacity:0; stroke-width: 2; stroke-dasharray: 8; stroke: #000000" x1="364.925" y1="440" x2="473.4" y2="440"/>
    <polygon style="fill: #000000" points="364.925,435 348.925,440 364.925,445 "/>
    <polygon style="fill: none; fill-opacity:0; stroke-width: 2; stroke: #000000" points="364.925,435 348.925,440 364.925,445 "/>
  </g>
  <g>
    <rect style="fill: #ffffff" x="580" y="100" width="170.35" height="36"/>
    <rect style="fill: none; fill-opacity:0; stroke-width: 2; stroke: #000000" x="580" y="100" width="170.35" height="36"/>
    <text font-size="12.7998" style="fill: #000000;text-anchor:middle;font-family:sans-serif;font-style:normal;font-weight:normal" x="665.175" y="121.9">
      <tspan x="665.175" y="121.9">GeocoderXMLResponse</tspan>
    </text>
    <line style="fill: none; fill-opacity:0; stroke-width: 1; stroke: #000000" x1="590" y1="124.95" x2="740.35" y2="124.95"/>
  </g>
  <g>
    <line style="fill: none; fill-opacity:0; stroke-width: 1; stroke-dasharray: 8; stroke: #000000" x1="665.175" y1="136" x2="665.175" y2="460"/>
    <line style="fill: none; fill-opacity:0; stroke-width: 1; stroke-dasharray: 8; stroke: #000000" x1="665.175" y1="580" x2="665.175" y2="640"/>
    <rect style="fill: #ffffff" x="658.175" y="460" width="14" height="120"/>
    <rect style="fill: none; fill-opacity:0; stroke-width: 2; stroke: #000000" x="658.175" y="460" width="14" height="120"/>
  </g>
  <g>
    <line style="fill: none; fill-opacity:0; stroke-width: 2; stroke: #000000" x1="641.175" y1="460" x2="347.925" y2="460"/>
    <polygon style="fill: #000000" points="641.175,465 657.175,460 641.175,455 "/>
    <polygon style="fill: none; fill-opacity:0; stroke-width: 2; stroke: #000000" points="641.175,465 657.175,460 641.175,455 "/>
    <text font-size="12.7998" style="fill: #000000;text-anchor:middle;font-family:sans-serif;font-style:normal;font-weight:normal" x="576" y="453">generate</text>
  </g>
  <g>
    <line style="fill: none; fill-opacity:0; stroke-width: 2; stroke: #000000" x1="672.175" y1="480" x2="760" y2="480"/>
    <line style="fill: none; fill-opacity:0; stroke-width: 2; stroke: #000000" x1="760" y1="480" x2="760" y2="500"/>
    <line style="fill: none; fill-opacity:0; stroke-width: 2; stroke: #000000" x1="689.175" y1="500" x2="760" y2="500"/>
    <polygon style="fill: #000000" points="689.175,495 673.175,500 689.175,505 "/>
    <polygon style="fill: none; fill-opacity:0; stroke-width: 2; stroke: #000000" points="689.175,495 673.175,500 689.175,505 "/>
    <text font-size="12.7998" style="fill: #000000;text-anchor:middle;font-family:sans-serif;font-style:normal;font-weight:normal" x="717" y="475">encode</text>
  </g>
  <g>
    <rect style="fill: #ffffff" x="780" y="100" width="165.55" height="36"/>
    <rect style="fill: none; fill-opacity:0; stroke-width: 2; stroke: #000000" x="780" y="100" width="165.55" height="36"/>
    <text font-size="12.7998" style="fill: #000000;text-anchor:middle;font-family:sans-serif;font-style:normal;font-weight:normal" x="862.775" y="121.9">
      <tspan x="862.775" y="121.9">GeocoderXMLProducer</tspan>
    </text>
    <line style="fill: none; fill-opacity:0; stroke-width: 1; stroke: #000000" x1="790" y1="124.95" x2="935.55" y2="124.95"/>
  </g>
  <g>
    <line style="fill: none; fill-opacity:0; stroke-width: 1; stroke-dasharray: 8; stroke: #000000" x1="862.775" y1="136" x2="862.775" y2="520"/>
    <line style="fill: none; fill-opacity:0; stroke-width: 1; stroke-dasharray: 8; stroke: #000000" x1="862.775" y1="560" x2="862.775" y2="640"/>
    <rect style="fill: #ffffff" x="855.775" y="520" width="14" height="40"/>
    <rect style="fill: none; fill-opacity:0; stroke-width: 2; stroke: #000000" x="855.775" y="520" width="14" height="40"/>
  </g>
  <g>
    <line style="fill: none; fill-opacity:0; stroke-width: 2; stroke: #000000" x1="838.775" y1="520" x2="672.175" y2="520"/>
    <polygon style="fill: #000000" points="838.775,525 854.775,520 838.775,515 "/>
    <polygon style="fill: none; fill-opacity:0; stroke-width: 2; stroke: #000000" points="838.775,525 854.775,520 838.775,515 "/>
    <text font-size="12.7998" style="fill: #000000;text-anchor:middle;font-family:sans-serif;font-style:normal;font-weight:normal" x="799" y="513">produce</text>
  </g>
  <g>
    <line style="fill: none; fill-opacity:0; stroke-width: 2; stroke-dasharray: 8; stroke: #000000" x1="689.175" y1="560" x2="855.775" y2="560"/>
    <polygon style="fill: #000000" points="689.175,555 673.175,560 689.175,565 "/>
    <polygon style="fill: none; fill-opacity:0; stroke-width: 2; stroke: #000000" points="689.175,555 673.175,560 689.175,565 "/>
  </g>
  <g>
    <line style="fill: none; fill-opacity:0; stroke-width: 2; stroke-dasharray: 8; stroke: #000000" x1="364.925" y1="580" x2="658.175" y2="580"/>
    <polygon style="fill: #000000" points="364.925,575 348.925,580 364.925,585 "/>
    <polygon style="fill: none; fill-opacity:0; stroke-width: 2; stroke: #000000" points="364.925,575 348.925,580 364.925,585 "/>
  </g>
  <g>
    <line style="fill: none; fill-opacity:0; stroke-width: 2; stroke-dasharray: 8; stroke: #000000" x1="187.6" y1="600" x2="333.925" y2="600"/>
    <polygon style="fill: #000000" points="187.6,595 171.6,600 187.6,605 "/>
    <polygon style="fill: none; fill-opacity:0; stroke-width: 2; stroke: #000000" points="187.6,595 171.6,600 187.6,605 "/>
  </g>
  <g>
    <line style="fill: none; fill-opacity:0; stroke-width: 2; stroke-dasharray: 8; stroke: #000000" x1="97" y1="620" x2="156.6" y2="620"/>
    <polygon style="fill: #000000" points="97,615 81,620 97,625 "/>
    <polygon style="fill: none; fill-opacity:0; stroke-width: 2; stroke: #000000" points="97,615 81,620 97,625 "/>
  </g>
</svg>
