<?xml version="1.0" encoding="UTF-8" standalone="no"?>
<!DOCTYPE svg PUBLIC "-//W3C//DTD SVG 1.0//EN" "http://www.w3.org/TR/2001/PR-SVG-20010719/DTD/svg10.dtd">
<svg width="27cm" height="20cm" viewBox="139 59 533 382" xmlns="http://www.w3.org/2000/svg" xmlns:xlink="http://www.w3.org/1999/xlink">
  <g>
    <line style="fill: none; fill-opacity:0; stroke-width: 1; stroke-dasharray: 8; stroke: #000000" x1="456.4" y1="96" x2="456.4" y2="180"/>
    <line style="fill: none; fill-opacity:0; stroke-width: 1; stroke-dasharray: 8; stroke: #000000" x1="456.4" y1="220" x2="456.4" y2="420"/>
    <rect style="fill: #ffffff" x="449.4" y="180" width="14" height="40"/>
    <rect style="fill: none; fill-opacity:0; stroke-width: 2; stroke: #000000" x="449.4" y="180" width="14" height="40"/>
  </g>
  <g>
    <line style="fill: none; fill-opacity:0; stroke-width: 1; stroke-dasharray: 8; stroke: #000000" x1="456.4" y1="96" x2="456.4" y2="260"/>
    <line style="fill: none; fill-opacity:0; stroke-width: 1; stroke-dasharray: 8; stroke: #000000" x1="456.4" y1="300" x2="456.4" y2="440"/>
    <rect style="fill: #ffffff" x="449.4" y="260" width="14" height="40"/>
    <rect style="fill: none; fill-opacity:0; stroke-width: 2; stroke: #000000" x="449.4" y="260" width="14" height="40"/>
  </g>
  <g>
    <rect style="fill: #ffffff" x="160" y="60" width="99.6" height="36"/>
    <rect style="fill: none; fill-opacity:0; stroke-width: 2; stroke: #000000" x="160" y="60" width="99.6" height="36"/>
    <text font-size="12.7998" style="fill: #000000;text-anchor:middle;font-family:sans-serif;font-style:normal;font-weight:normal" x="209.8" y="81.9">
      <tspan x="209.8" y="81.9">FotosServlet</tspan>
    </text>
    <line style="fill: none; fill-opacity:0; stroke-width: 1; stroke: #000000" x1="170" y1="84.95" x2="249.6" y2="84.95"/>
  </g>
  <g>
    <line style="fill: none; fill-opacity:0; stroke-width: 1; stroke-dasharray: 8; stroke: #000000" x1="209.8" y1="96" x2="209.8" y2="120"/>
    <line style="fill: none; fill-opacity:0; stroke-width: 1; stroke-dasharray: 8; stroke: #000000" x1="209.8" y1="400" x2="209.8" y2="440"/>
    <rect style="fill: #ffffff" x="202.8" y="120" width="14" height="280"/>
    <rect style="fill: none; fill-opacity:0; stroke-width: 2; stroke: #000000" x="202.8" y="120" width="14" height="280"/>
  </g>
  <g>
    <line style="fill: none; fill-opacity:0; stroke-width: 2; stroke: #000000" x1="185.8" y1="120" x2="140" y2="120"/>
    <polygon style="fill: #000000" points="185.8,125 201.8,120 185.8,115 "/>
    <polygon style="fill: none; fill-opacity:0; stroke-width: 2; stroke: #000000" points="185.8,125 201.8,120 185.8,115 "/>
    <text font-size="12.7998" style="fill: #000000;text-anchor:middle;font-family:sans-serif;font-style:normal;font-weight:normal" x="162" y="115">doGet</text>
  </g>
  <g>
    <line style="fill: none; fill-opacity:0; stroke-width: 2; stroke: #000000" x1="216.8" y1="130" x2="340" y2="130"/>
    <line style="fill: none; fill-opacity:0; stroke-width: 2; stroke: #000000" x1="340" y1="130" x2="340" y2="160"/>
    <line style="fill: none; fill-opacity:0; stroke-width: 2; stroke: #000000" x1="233.8" y1="160" x2="340" y2="160"/>
    <polygon style="fill: #000000" points="233.8,155 217.8,160 233.8,165 "/>
    <polygon style="fill: none; fill-opacity:0; stroke-width: 2; stroke: #000000" points="233.8,155 217.8,160 233.8,165 "/>
    <text font-size="12.7998" style="fill: #000000;text-anchor:middle;font-family:sans-serif;font-style:normal;font-weight:normal" x="283" y="123">processRequest</text>
  </g>
  <g>
    <rect style="fill: #ffffff" x="400" y="60" width="112.8" height="36"/>
    <rect style="fill: none; fill-opacity:0; stroke-width: 2; stroke: #000000" x="400" y="60" width="112.8" height="36"/>
    <text font-size="12.7998" style="fill: #000000;text-anchor:middle;font-family:sans-serif;font-style:normal;font-weight:normal" x="456.4" y="81.9">
      <tspan x="456.4" y="81.9">FotografiaDLM</tspan>
    </text>
    <line style="fill: none; fill-opacity:0; stroke-width: 1; stroke: #000000" x1="410" y1="84.95" x2="502.8" y2="84.95"/>
  </g>
  <g>
    <line style="fill: none; fill-opacity:0; stroke-width: 2; stroke: #000000" x1="432.4" y1="180" x2="216.8" y2="180"/>
    <polygon style="fill: #000000" points="432.4,185 448.4,180 432.4,175 "/>
    <polygon style="fill: none; fill-opacity:0; stroke-width: 2; stroke: #000000" points="432.4,185 448.4,180 432.4,175 "/>
    <text font-size="12.7998" style="fill: #000000;text-anchor:middle;font-family:sans-serif;font-style:normal;font-weight:normal" x="386" y="173">createNew</text>
  </g>
  <g>
    <line style="fill: none; fill-opacity:0; stroke-width: 2; stroke-dasharray: 8; stroke: #000000" x1="233.8" y1="220" x2="449.4" y2="220"/>
    <polygon style="fill: #000000" points="233.8,215 217.8,220 233.8,225 "/>
    <polygon style="fill: none; fill-opacity:0; stroke-width: 2; stroke: #000000" points="233.8,215 217.8,220 233.8,225 "/>
  </g>
  <g>
    <line style="fill: none; fill-opacity:0; stroke-width: 2; stroke: #000000" x1="432.4" y1="260" x2="216.8" y2="260"/>
    <polygon style="fill: #000000" points="432.4,265 448.4,260 432.4,255 "/>
    <polygon style="fill: none; fill-opacity:0; stroke-width: 2; stroke: #000000" points="432.4,265 448.4,260 432.4,255 "/>
    <text font-size="12.7998" style="fill: #000000;text-anchor:middle;font-family:sans-serif;font-style:normal;font-weight:normal" x="391" y="254">find</text>
  </g>
  <g>
    <line style="fill: none; fill-opacity:0; stroke-width: 2; stroke-dasharray: 8; stroke: #000000" x1="233.8" y1="300" x2="449.4" y2="300"/>
    <polygon style="fill: #000000" points="233.8,295 217.8,300 233.8,305 "/>
    <polygon style="fill: none; fill-opacity:0; stroke-width: 2; stroke: #000000" points="233.8,295 217.8,300 233.8,305 "/>
  </g>
  <g>
    <rect style="fill: #ffffff" x="560" y="60" width="110.2" height="36"/>
    <rect style="fill: none; fill-opacity:0; stroke-width: 2; stroke: #000000" x="560" y="60" width="110.2" height="36"/>
    <text font-size="12.7998" style="fill: #000000;text-anchor:middle;font-family:sans-serif;font-style:normal;font-weight:normal" x="615.1" y="81.9">
      <tspan x="615.1" y="81.9">SearchResults</tspan>
    </text>
    <line style="fill: none; fill-opacity:0; stroke-width: 1; stroke: #000000" x1="570" y1="84.95" x2="660.2" y2="84.95"/>
  </g>
  <g>
    <line style="fill: none; fill-opacity:0; stroke-width: 1; stroke-dasharray: 8; stroke: #000000" x1="615.1" y1="96" x2="615.1" y2="340"/>
    <line style="fill: none; fill-opacity:0; stroke-width: 1; stroke-dasharray: 8; stroke: #000000" x1="615.1" y1="380" x2="615.1" y2="440"/>
    <rect style="fill: #ffffff" x="608.1" y="340" width="14" height="40"/>
    <rect style="fill: none; fill-opacity:0; stroke-width: 2; stroke: #000000" x="608.1" y="340" width="14" height="40"/>
  </g>
  <g>
    <line style="fill: none; fill-opacity:0; stroke-width: 2; stroke: #000000" x1="591.1" y1="340" x2="216.8" y2="340"/>
    <polygon style="fill: #000000" points="591.1,345 607.1,340 591.1,335 "/>
    <polygon style="fill: none; fill-opacity:0; stroke-width: 2; stroke: #000000" points="591.1,345 607.1,340 591.1,335 "/>
    <text font-size="12.7998" style="fill: #000000;text-anchor:middle;font-family:sans-serif;font-style:normal;font-weight:normal" x="463" y="333">getResults(TiposRecurso.FOTOGRAFIA)</text>
  </g>
  <g>
    <line style="fill: none; fill-opacity:0; stroke-width: 2; stroke-dasharray: 8; stroke: #000000" x1="233.8" y1="380" x2="608.1" y2="380"/>
    <polygon style="fill: #000000" points="233.8,375 217.8,380 233.8,385 "/>
    <polygon style="fill: none; fill-opacity:0; stroke-width: 2; stroke: #000000" points="233.8,375 217.8,380 233.8,385 "/>
  </g>
  <g>
    <line style="fill: none; fill-opacity:0; stroke-width: 2; stroke-dasharray: 8; stroke: #000000" x1="157" y1="400" x2="202.8" y2="400"/>
    <polygon style="fill: #000000" points="157,395 141,400 157,405 "/>
    <polygon style="fill: none; fill-opacity:0; stroke-width: 2; stroke: #000000" points="157,395 141,400 157,405 "/>
  </g>
</svg>
