<?xml version="1.0" encoding="UTF-8" standalone="no"?>
<!DOCTYPE svg PUBLIC "-//W3C//DTD SVG 1.0//EN" "http://www.w3.org/TR/2001/PR-SVG-20010719/DTD/svg10.dtd">
<svg width="31cm" height="25cm" viewBox="98 59 616 483" xmlns="http://www.w3.org/2000/svg" xmlns:xlink="http://www.w3.org/1999/xlink">
  <g>
    <line style="fill: none; fill-opacity:0; stroke-width: 1; stroke-dasharray: 8; stroke: #000000" x1="200.012" y1="100.9" x2="200.012" y2="121.15"/>
    <line style="fill: none; fill-opacity:0; stroke-width: 1; stroke-dasharray: 8; stroke: #000000" x1="200.012" y1="521.15" x2="200.012" y2="541.15"/>
    <rect style="fill: #ffffff" x="193.012" y="121.15" width="14" height="400"/>
    <rect style="fill: none; fill-opacity:0; stroke-width: 2; stroke: #000000" x="193.012" y="121.15" width="14" height="400"/>
  </g>
  <g>
    <rect style="fill: #ffffff" x="145.012" y="60.9" width="109.7" height="36"/>
    <rect style="fill: none; fill-opacity:0; stroke-width: 2; stroke: #000000" x="145.012" y="60.9" width="109.7" height="36"/>
    <text font-size="12.8" style="fill: #000000;text-anchor:middle;font-family:sans-serif;font-style:normal;font-weight:normal" x="199.862" y="82.8">
      <tspan x="199.862" y="82.8">DetailsServlet</tspan>
    </text>
    <line style="fill: none; fill-opacity:0; stroke-width: 1; stroke: #000000" x1="155.012" y1="85.85" x2="244.712" y2="85.85"/>
  </g>
  <g>
    <line style="fill: none; fill-opacity:0; stroke-width: 1; stroke-dasharray: 8; stroke: #000000" x1="379.612" y1="96.9" x2="379.612" y2="200.9"/>
    <line style="fill: none; fill-opacity:0; stroke-width: 1; stroke-dasharray: 8; stroke: #000000" x1="379.612" y1="240.9" x2="379.612" y2="520"/>
    <rect style="fill: #ffffff" x="372.612" y="200.9" width="14" height="40"/>
    <rect style="fill: none; fill-opacity:0; stroke-width: 2; stroke: #000000" x="372.612" y="200.9" width="14" height="40"/>
  </g>
  <g>
    <rect style="fill: #ffffff" x="300.012" y="60.9" width="159.2" height="36"/>
    <rect style="fill: none; fill-opacity:0; stroke-width: 2; stroke: #000000" x="300.012" y="60.9" width="159.2" height="36"/>
    <text font-size="12.8" style="fill: #000000;text-anchor:middle;font-family:sans-serif;font-style:normal;font-weight:normal" x="379.612" y="82.8">
      <tspan x="379.612" y="82.8">DetailsMethodFactory</tspan>
    </text>
    <line style="fill: none; fill-opacity:0; stroke-width: 1; stroke: #000000" x1="310.012" y1="85.85" x2="449.212" y2="85.85"/>
  </g>
  <g>
    <rect style="fill: #ffffff" x="480.012" y="60.9" width="118.05" height="36"/>
    <rect style="fill: none; fill-opacity:0; stroke-width: 2; stroke: #000000" x="480.012" y="60.9" width="118.05" height="36"/>
    <text font-size="12.8" style="fill: #000000;text-anchor:middle;font-family:sans-serif;font-style:normal;font-weight:normal" x="539.037" y="82.8">
      <tspan x="539.037" y="82.8">AbstractDetails</tspan>
    </text>
    <line style="fill: none; fill-opacity:0; stroke-width: 1; stroke: #000000" x1="490.012" y1="85.85" x2="588.062" y2="85.85"/>
  </g>
  <g>
    <line style="fill: none; fill-opacity:0; stroke-width: 1; stroke-dasharray: 8; stroke: #000000" x1="539.037" y1="96.9" x2="539.037" y2="260.9"/>
    <line style="fill: none; fill-opacity:0; stroke-width: 1; stroke-dasharray: 8; stroke: #000000" x1="539.037" y1="320.9" x2="539.037" y2="480"/>
    <rect style="fill: #ffffff" x="532.037" y="260.9" width="14" height="60"/>
    <rect style="fill: none; fill-opacity:0; stroke-width: 2; stroke: #000000" x="532.037" y="260.9" width="14" height="60"/>
  </g>
  <g>
    <line style="fill: none; fill-opacity:0; stroke-width: 2; stroke: #000000" x1="207.012" y1="141.15" x2="320.012" y2="141.15"/>
    <line style="fill: none; fill-opacity:0; stroke-width: 2; stroke: #000000" x1="320.012" y1="141.15" x2="320.012" y2="166.15"/>
    <line style="fill: none; fill-opacity:0; stroke-width: 2; stroke: #000000" x1="224.012" y1="166.15" x2="320.012" y2="166.15"/>
    <polygon style="fill: #000000" points="224.012,161.15 208.012,166.15 224.012,171.15 "/>
    <polygon style="fill: none; fill-opacity:0; stroke-width: 2; stroke: #000000" points="224.012,161.15 208.012,166.15 224.012,171.15 "/>
    <text font-size="12.7998" style="fill: #000000;text-anchor:middle;font-family:sans-serif;font-style:normal;font-weight:normal" x="268.012" y="132.275">processRequest</text>
  </g>
  <g>
    <line style="fill: none; fill-opacity:0; stroke-width: 2; stroke: #000000" x1="355.612" y1="200.926" x2="207.012" y2="201.15"/>
    <polygon style="fill: #000000" points="355.619,205.926 371.612,200.902 355.604,195.926 "/>
    <polygon style="fill: none; fill-opacity:0; stroke-width: 2; stroke: #000000" points="355.619,205.926 371.612,200.902 355.604,195.926 "/>
    <text font-size="12.7998" style="fill: #000000;text-anchor:middle;font-family:sans-serif;font-style:normal;font-weight:normal" x="291.099" y="194.275">getDetailsMethod</text>
  </g>
  <g>
    <line style="fill: none; fill-opacity:0; stroke-width: 2; stroke-dasharray: 8; stroke: #000000" x1="224.012" y1="241.124" x2="372.612" y2="240.9"/>
    <polygon style="fill: #000000" points="224.004,236.124 208.012,241.148 224.019,246.124 "/>
    <polygon style="fill: none; fill-opacity:0; stroke-width: 2; stroke: #000000" points="224.004,236.124 208.012,241.148 224.019,246.124 "/>
  </g>
  <g>
    <line style="fill: none; fill-opacity:0; stroke-width: 2; stroke: #000000" x1="515.037" y1="260.913" x2="207.012" y2="261.15"/>
    <polygon style="fill: #000000" points="515.041,265.913 531.037,260.901 515.033,255.913 "/>
    <polygon style="fill: none; fill-opacity:0; stroke-width: 2; stroke: #000000" points="515.041,265.913 531.037,260.901 515.033,255.913 "/>
    <text font-size="12.7998" style="fill: #000000;text-anchor:middle;font-family:sans-serif;font-style:normal;font-weight:normal" x="465.099" y="255.275">doDetails</text>
  </g>
  <g>
    <line style="fill: none; fill-opacity:0; stroke-width: 2; stroke-dasharray: 8; stroke: #000000" x1="224.012" y1="321.137" x2="532.037" y2="320.9"/>
    <polygon style="fill: #000000" points="224.008,316.137 208.012,321.149 224.016,326.137 "/>
    <polygon style="fill: none; fill-opacity:0; stroke-width: 2; stroke: #000000" points="224.008,316.137 208.012,321.149 224.016,326.137 "/>
  </g>
  <g>
    <line style="fill: none; fill-opacity:0; stroke-width: 2; stroke: #000000" x1="176.013" y1="120.94" x2="100" y2="120"/>
    <polygon style="fill: #000000" points="175.951,125.939 192.012,121.138 176.075,115.94 "/>
    <polygon style="fill: none; fill-opacity:0; stroke-width: 2; stroke: #000000" points="175.951,125.939 192.012,121.138 176.075,115.94 "/>
    <text font-size="12.7998" style="fill: #000000;text-anchor:middle;font-family:sans-serif;font-style:normal;font-weight:normal" x="141.506" y="115.2">doGet</text>
  </g>
  <g>
    <line style="fill: none; fill-opacity:0; stroke-width: 2; stroke-dasharray: 8; stroke: #000000" x1="116.999" y1="520.21" x2="193.012" y2="521.15"/>
    <polygon style="fill: #000000" points="117.061,515.211 101,520.012 116.937,525.21 "/>
    <polygon style="fill: none; fill-opacity:0; stroke-width: 2; stroke: #000000" points="117.061,515.211 101,520.012 116.937,525.21 "/>
  </g>
  <g>
    <line style="fill: none; fill-opacity:0; stroke-width: 1; stroke-dasharray: 8; stroke: #000000" x1="539.037" y1="96.9" x2="539.037" y2="360"/>
    <line style="fill: none; fill-opacity:0; stroke-width: 1; stroke-dasharray: 8; stroke: #000000" x1="539.037" y1="420" x2="539.037" y2="520"/>
    <rect style="fill: #ffffff" x="532.037" y="360" width="14" height="60"/>
    <rect style="fill: none; fill-opacity:0; stroke-width: 2; stroke: #000000" x="532.037" y="360" width="14" height="60"/>
  </g>
  <g>
    <line style="fill: none; fill-opacity:0; stroke-width: 2; stroke: #000000" x1="515.037" y1="360.06" x2="207.012" y2="361.15"/>
    <polygon style="fill: #000000" points="515.055,365.06 531.037,360.004 515.019,355.06 "/>
    <polygon style="fill: none; fill-opacity:0; stroke-width: 2; stroke: #000000" points="515.055,365.06 531.037,360.004 515.019,355.06 "/>
    <text font-size="12.7998" style="fill: #000000;text-anchor:middle;font-family:sans-serif;font-style:normal;font-weight:normal" x="463" y="354">generateText</text>
  </g>
  <g>
    <line style="fill: none; fill-opacity:0; stroke-width: 2; stroke-dasharray: 8; stroke: #000000" x1="224.012" y1="421.09" x2="532.037" y2="420"/>
    <polygon style="fill: #000000" points="223.994,416.09 208.012,421.146 224.029,426.09 "/>
    <polygon style="fill: none; fill-opacity:0; stroke-width: 2; stroke: #000000" points="223.994,416.09 208.012,421.146 224.029,426.09 "/>
  </g>
  <g>
    <rect style="fill: #ffffff" x="620" y="60" width="93.2" height="36"/>
    <rect style="fill: none; fill-opacity:0; stroke-width: 2; stroke: #000000" x="620" y="60" width="93.2" height="36"/>
    <text font-size="12.7998" style="fill: #000000;text-anchor:middle;font-family:sans-serif;font-style:normal;font-weight:normal" x="666.6" y="81.9">
      <tspan x="666.6" y="81.9">SpeechText</tspan>
    </text>
    <line style="fill: none; fill-opacity:0; stroke-width: 1; stroke: #000000" x1="630" y1="84.95" x2="703.2" y2="84.95"/>
  </g>
  <g>
    <line style="fill: none; fill-opacity:0; stroke-width: 1; stroke-dasharray: 8; stroke: #000000" x1="666.6" y1="96" x2="666.6" y2="440"/>
    <line style="fill: none; fill-opacity:0; stroke-width: 1; stroke-dasharray: 8; stroke: #000000" x1="666.6" y1="500" x2="666.6" y2="524"/>
    <rect style="fill: #ffffff" x="659.6" y="440" width="14" height="60"/>
    <rect style="fill: none; fill-opacity:0; stroke-width: 2; stroke: #000000" x="659.6" y="440" width="14" height="60"/>
  </g>
  <g>
    <line style="fill: none; fill-opacity:0; stroke-width: 2; stroke: #000000" x1="642.6" y1="440.043" x2="207.012" y2="441.15"/>
    <polygon style="fill: #000000" points="642.613,445.043 658.6,440.003 642.587,435.043 "/>
    <polygon style="fill: none; fill-opacity:0; stroke-width: 2; stroke: #000000" points="642.613,445.043 658.6,440.003 642.587,435.043 "/>
    <text font-size="12.7998" style="fill: #000000;text-anchor:middle;font-family:sans-serif;font-style:normal;font-weight:normal" x="602" y="434">store</text>
  </g>
  <g>
    <line style="fill: none; fill-opacity:0; stroke-width: 2; stroke-dasharray: 8; stroke: #000000" x1="224.012" y1="501.107" x2="659.6" y2="500"/>
    <polygon style="fill: #000000" points="223.999,496.107 208.012,501.147 224.024,506.107 "/>
    <polygon style="fill: none; fill-opacity:0; stroke-width: 2; stroke: #000000" points="223.999,496.107 208.012,501.147 224.024,506.107 "/>
  </g>
</svg>
